<svg width="28" height="26" viewBox="0 0 28 26" fill="none" xmlns="http://www.w3.org/2000/svg">
    <g filter="url(#filter0_d_39_726)">
        <path d="M23.0909 11.6566H4.9091C4.4091 11.6566 4 11.2531 4 10.76V0.896673C4 0.403509 4.4091 0 4.9091 0H23.0909C23.5909 0 24 0.403509 24 0.896673V10.76C24 11.2531 23.5909 11.6566 23.0909 11.6566Z" fill="#0E9347"/>
        <path d="M20.8181 8.06995C19.7726 8.06995 18.8181 8.56311 18.2726 9.37009C17.8181 9.14597 17.3181 8.96662 16.7272 8.96662C15.1363 8.96662 13.8181 10.1323 13.5908 11.6566H23.0908C23.5453 11.6566 23.909 11.3428 23.9999 10.8944C23.8181 9.32528 22.4544 8.06995 20.8181 8.06995Z" fill="#0D8944"/>
        <path d="M21.2728 10.76H6.72734C6.72734 9.77365 5.90918 8.96667 4.90918 8.96667V2.69004C5.90918 2.69004 6.72734 1.88306 6.72734 0.896729H21.2728C21.2728 1.88306 22.0909 2.69004 23.0909 2.69004V8.96667C22.0909 8.96667 21.2728 9.77365 21.2728 10.76Z" fill="#3BB54A"/>
        <path d="M20.8183 8.06995C19.7728 8.06995 18.8183 8.56311 18.2728 9.37009C17.8183 9.14597 17.3183 8.96662 16.7274 8.96662C15.4547 8.96662 14.3638 9.68394 13.8638 10.7599H21.2729C21.2729 9.7736 22.0456 9.01143 23.0456 8.96662C22.4547 8.42861 21.682 8.06995 20.8183 8.06995Z" fill="#0E9347"/>
        <path d="M14.0001 9.86328C16.0084 9.86328 17.6365 8.05676 17.6365 5.82831C17.6365 3.59985 16.0084 1.79333 14.0001 1.79333C11.9918 1.79333 10.3638 3.59985 10.3638 5.82831C10.3638 8.05676 11.9918 9.86328 14.0001 9.86328Z" fill="#0E9347"/>
        <path d="M8.54557 6.72499C9.04766 6.72499 9.45467 6.32353 9.45467 5.82831C9.45467 5.33309 9.04766 4.93164 8.54557 4.93164C8.04349 4.93164 7.63647 5.33309 7.63647 5.82831C7.63647 6.32353 8.04349 6.72499 8.54557 6.72499Z" fill="#0E9347"/>
        <path d="M19.4545 6.72499C19.9566 6.72499 20.3636 6.32353 20.3636 5.82831C20.3636 5.33309 19.9566 4.93164 19.4545 4.93164C18.9524 4.93164 18.5454 5.33309 18.5454 5.82831C18.5454 6.32353 18.9524 6.72499 19.4545 6.72499Z" fill="#0E9347"/>
        <path d="M14.4546 5.38001H13.5455C13.2727 5.38001 13.0909 5.20066 13.0909 4.9317C13.0909 4.66269 13.2728 4.48338 13.5455 4.48338H14.9091C15.1818 4.48338 15.3636 4.30403 15.3636 4.03506C15.3636 3.76606 15.1818 3.58675 14.9091 3.58675H14.4546C14.4546 3.31774 14.2727 3.13843 14 3.13843C13.7273 3.13843 13.5455 3.31778 13.5455 3.58675C12.7728 3.58675 12.1819 4.16957 12.1819 4.93174C12.1819 5.69391 12.7728 6.27673 13.5455 6.27673H14.4546C14.7273 6.27673 14.9091 6.45608 14.9091 6.72504C14.9091 6.99405 14.7273 7.17336 14.4546 7.17336H13.091C12.8183 7.17336 12.6365 7.35271 12.6365 7.62168C12.6365 7.89068 12.8183 8.07 13.091 8.07H13.5455C13.5455 8.339 13.7274 8.51831 14 8.51831C14.2728 8.51831 14.4546 8.33896 14.4546 8.07C15.2273 8.07 15.8182 7.48717 15.8182 6.725C15.8182 5.96283 15.2273 5.38001 14.4546 5.38001Z" fill="#89C763"/>
        <path d="M15.8181 15.2433C17.5753 15.2433 18.9999 13.8382 18.9999 12.1049C18.9999 10.3717 17.5753 8.96661 15.8181 8.96661C14.0608 8.96661 12.6362 10.3717 12.6362 12.1049C12.6362 13.8382 14.0608 15.2433 15.8181 15.2433Z" fill="#FFCA5D"/>
        <path d="M19.9091 14.3466C21.6664 14.3466 23.091 12.9415 23.091 11.2083C23.091 9.47503 21.6664 8.06995 19.9091 8.06995C18.1518 8.06995 16.7273 9.47503 16.7273 11.2083C16.7273 12.9415 18.1518 14.3466 19.9091 14.3466Z" fill="#F6B545"/>
        <path d="M19.9091 8.06995C18.1364 8.06995 16.7273 9.45978 16.7273 11.2083C16.7273 12.9568 18.1364 14.3466 19.9091 14.3466C21.6819 14.3466 23.091 12.9568 23.091 11.2083C23.091 9.45978 21.6819 8.06995 19.9091 8.06995ZM19.9091 13.4499C18.6364 13.4499 17.6364 12.4636 17.6364 11.2083C17.6364 9.95295 18.6364 8.96662 19.9091 8.96662C21.1819 8.96662 22.1819 9.95295 22.1819 11.2083C22.1819 12.4636 21.1819 13.4499 19.9091 13.4499Z" fill="#FFCB5B"/>
        <path d="M19.9092 14.3018C21.6819 14.3466 23.091 12.912 23.091 11.2083H23.0455C22.8183 11.2083 22.6364 11.3877 22.591 11.6118C22.5001 12.2395 22.1819 12.8223 21.7274 13.2258C21.3637 13.5845 20.8637 13.8086 20.3183 13.8983C20.091 13.8983 19.9092 14.0776 19.9092 14.3018Z" fill="#F6B545"/>
        <path d="M19.9091 8.11485C18.1364 8.07001 16.7273 9.50469 16.7273 11.2083H16.7728C17 11.2083 17.1819 11.029 17.2273 10.8048C17.3182 10.1772 17.6364 9.59435 18.0909 9.19084C18.4546 8.83218 18.9546 8.60802 19.5 8.51832C19.7273 8.51836 19.9091 8.33901 19.9091 8.11485Z" fill="#FFE27A"/>
        <path d="M17.9544 11.5221C17.9544 10.2668 18.9544 9.28043 20.2271 9.28043C20.7726 9.28043 21.2726 9.45978 21.6817 9.81844C21.2271 9.28043 20.6362 8.96661 19.909 8.96661C18.6362 8.96661 17.6362 9.95294 17.6362 11.2083C17.6362 11.9256 17.9544 12.5084 18.4544 12.9119C18.1362 12.5533 17.9544 12.0601 17.9544 11.5221Z" fill="#F19920"/>
        <path d="M21.2727 12.5981C21.2272 12.5981 21.1818 12.5981 21.1363 12.5533C21.0454 12.4636 21.0454 12.3291 21.1363 12.2395C21.409 11.9705 21.5454 11.567 21.5454 11.2083C21.5454 11.0738 21.6363 10.9841 21.7727 10.9841C21.909 10.9841 21.9999 11.0738 21.9999 11.2083C21.9999 11.7015 21.8181 12.1946 21.4999 12.5533C21.409 12.5981 21.3181 12.5981 21.2727 12.5981Z" fill="#FFCB5B"/>
        <path d="M19.9091 12.5533C19.6364 12.5533 19.4546 12.3739 19.4546 12.105V10.3117C19.4546 10.0427 19.6364 9.86334 19.9091 9.86334C20.1818 9.86334 20.3637 10.0427 20.3637 10.3117V12.105C20.3637 12.3739 20.1819 12.5533 19.9091 12.5533Z" fill="#F19920"/>
        <path d="M21.5909 13.8534C21.2727 12.7326 20.4545 11.8359 19.4091 11.4324C19.2272 10.4013 18.5454 9.50463 17.6818 8.96661C17.1363 9.54943 16.7727 10.3116 16.7727 11.1634C16.7727 12.9119 18.1818 14.3018 19.9545 14.3018C20.5455 14.3466 21.0909 14.1673 21.5909 13.8534Z" fill="#F19920"/>
        <path d="M18.4544 12.912C18.1363 12.5084 17.909 12.0153 17.909 11.4773C17.909 10.8496 18.1817 10.2668 18.6362 9.86331C18.5453 9.72881 18.4544 9.63916 18.3635 9.5495C17.909 9.95301 17.6362 10.5358 17.6362 11.2083C17.6363 11.9256 17.9544 12.5084 18.4544 12.912Z" fill="#E78825"/>
        <path d="M19.4543 11.4773V12.105C19.4543 12.374 19.6362 12.5533 19.9089 12.5533C20.1816 12.5533 20.3634 12.3739 20.3634 12.105V12.0153C20.0907 11.7911 19.7725 11.6118 19.4543 11.4773Z" fill="#E78825"/>
        <path d="M21.5909 13.8534C21.5 13.5396 21.4091 13.2706 21.2273 13.0016C20.8637 13.2706 20.4091 13.4499 19.9091 13.4499C18.6364 13.4499 17.6364 12.4636 17.6364 11.2083C17.6364 10.5358 17.9091 9.95293 18.3637 9.54943C18.1364 9.32527 17.9091 9.14592 17.6364 9.01141C17.0909 9.59423 16.7273 10.3564 16.7273 11.2082C16.7273 12.9567 18.1364 14.3466 19.9091 14.3466C20.5455 14.3466 21.0909 14.1673 21.5909 13.8534Z" fill="#F6B545"/>
        <path d="M21.4544 13.45C21.1362 13.6741 20.7271 13.8086 20.318 13.8983C20.0908 13.9431 19.9089 14.1224 19.9089 14.3466C20.5453 14.3466 21.0908 14.1672 21.5908 13.8534C21.5453 13.7189 21.4999 13.5845 21.4544 13.45Z" fill="#F19920"/>
        <path d="M17.6364 9.01147C17.0909 9.59429 16.7273 10.3565 16.7273 11.2083H16.7728C17 11.2083 17.1819 11.0289 17.2273 10.8048C17.3182 10.1771 17.6364 9.6391 18.0455 9.23563C17.9091 9.19079 17.7728 9.10113 17.6364 9.01147Z" fill="#FFCB5B"/>
        <path d="M15.8181 15.2433C17.5753 15.2433 18.9999 13.8382 18.9999 12.1049C18.9999 10.3717 17.5753 8.96661 15.8181 8.96661C14.0608 8.96661 12.6362 10.3717 12.6362 12.1049C12.6362 13.8382 14.0608 15.2433 15.8181 15.2433Z" fill="#F6B545"/>
        <path d="M15.3635 14.3466C15.3635 14.6604 15.409 14.9294 15.4999 15.2433C15.5908 15.2433 15.7272 15.2433 15.8181 15.2433C17.5908 15.2433 18.9999 13.8534 18.9999 12.1049C18.9999 11.7911 18.9544 11.5221 18.8635 11.2083C18.7726 11.2083 18.6363 11.2083 18.5454 11.2083C16.7726 11.2083 15.3635 12.5981 15.3635 14.3466Z" fill="#F19920"/>
        <path d="M15.8181 8.96661C14.0453 8.96661 12.6362 10.3565 12.6362 12.1049C12.6362 13.8534 14.0453 15.2433 15.8181 15.2433C17.5908 15.2433 18.9999 13.8534 18.9999 12.1049C18.9999 10.3565 17.5908 8.96661 15.8181 8.96661ZM15.8181 14.3466C14.5453 14.3466 13.5453 13.3602 13.5453 12.1049C13.5453 10.8496 14.5453 9.86325 15.8181 9.86325C17.0908 9.86325 18.0908 10.8496 18.0908 12.1049C18.0908 13.3602 17.0908 14.3466 15.8181 14.3466Z" fill="#FFCB5B"/>
        <path d="M15.8181 15.1984C17.5908 15.2433 18.9999 13.8086 18.9999 12.105H18.9545C18.7272 12.105 18.5454 12.2843 18.4999 12.5085C18.409 13.1362 18.0908 13.719 17.6363 14.1225C17.2727 14.4811 16.7727 14.7053 16.2272 14.795C16 14.795 15.8181 14.9743 15.8181 15.1984Z" fill="#F6B545"/>
        <path d="M15.8181 9.01146C14.0453 8.96661 12.6362 10.4013 12.6362 12.105H12.6817C12.909 12.105 13.0908 11.9256 13.1362 11.7014C13.2271 11.0738 13.5453 10.491 13.9999 10.0874C14.3635 9.72878 14.8635 9.50462 15.409 9.41493C15.6363 9.41493 15.8181 9.23562 15.8181 9.01146Z" fill="#FFE27A"/>
        <path d="M13.8636 12.4188C13.8636 11.1635 14.8636 10.1772 16.1363 10.1772C16.6818 10.1772 17.1818 10.3565 17.5909 10.7152C17.1363 10.1772 16.5454 9.86334 15.8181 9.86334C14.5454 9.86334 13.5454 10.8497 13.5454 12.105C13.5454 12.8223 13.8636 13.4051 14.3636 13.8087C14.0454 13.45 13.8636 12.9568 13.8636 12.4188Z" fill="#F19920"/>
        <path d="M17.1818 13.4948C17.1364 13.4948 17.0909 13.4948 17.0455 13.4499C16.9546 13.3603 16.9546 13.2258 17.0455 13.1361C17.3182 12.8671 17.4546 12.4636 17.4546 12.105C17.4546 11.9705 17.5455 11.8808 17.6818 11.8808C17.8182 11.8808 17.9091 11.9705 17.9091 12.105C17.9091 12.5981 17.7273 13.0913 17.4091 13.4499C17.3182 13.4948 17.2273 13.4948 17.1818 13.4948Z" fill="#FFCB5B"/>
        <path d="M15.8181 13.45C15.5453 13.45 15.3635 13.2706 15.3635 13.0016V11.2083C15.3635 10.9393 15.5454 10.76 15.8181 10.76C16.0908 10.76 16.2726 10.9394 16.2726 11.2083V13.0016C16.2726 13.2706 16.0908 13.45 15.8181 13.45Z" fill="#F19920"/>
        <path d="M17.909 11.2531C17.9998 11.5221 18.0908 11.7911 18.0908 12.1049C18.0908 13.3603 17.0908 14.3466 15.8181 14.3466C15.6817 14.3466 15.4999 14.3466 15.3635 14.3017V14.3466C15.3635 14.6604 15.409 14.9294 15.4999 15.2433C15.5908 15.2433 15.7272 15.2433 15.8181 15.2433C17.5908 15.2433 18.9999 13.8534 18.9999 12.1049C18.9999 11.7911 18.9544 11.5221 18.8635 11.2083C18.7726 11.2083 18.6363 11.2083 18.5454 11.2083C18.318 11.2083 18.1362 11.2083 17.909 11.2531Z" fill="#F6B545"/>
        <path d="M18.0908 17.9333C19.848 17.9333 21.2726 16.5282 21.2726 14.795C21.2726 13.0617 19.848 11.6566 18.0908 11.6566C16.3335 11.6566 14.9089 13.0617 14.9089 14.795C14.9089 16.5282 16.3335 17.9333 18.0908 17.9333Z" fill="#F6B545"/>
        <path d="M18.0908 11.6566C16.318 11.6566 14.9089 13.0465 14.9089 14.795C14.9089 16.5435 16.318 17.9333 18.0908 17.9333C19.8635 17.9333 21.2726 16.5435 21.2726 14.795C21.2726 13.0465 19.8635 11.6566 18.0908 11.6566ZM18.0908 17.0366C16.818 17.0366 15.818 16.0503 15.818 14.795C15.818 13.5396 16.818 12.5533 18.0908 12.5533C19.3635 12.5533 20.3635 13.5396 20.3635 14.795C20.3635 16.0503 19.3635 17.0366 18.0908 17.0366Z" fill="#FFCB5B"/>
        <path d="M18.0908 17.8885C19.8636 17.9333 21.2727 16.4986 21.2727 14.795H21.2272C20.9999 14.795 20.8181 14.9743 20.7727 15.1985C20.6818 15.8262 20.3636 16.409 19.909 16.8125C19.5454 17.1711 19.0454 17.3953 18.4999 17.485C18.2727 17.485 18.0908 17.6643 18.0908 17.8885Z" fill="#F6B545"/>
        <path d="M18.0908 11.7015C16.318 11.6566 14.9089 13.0913 14.9089 14.795H14.9544C15.1817 14.795 15.3635 14.6156 15.4089 14.3914C15.4998 13.7638 15.818 13.181 16.2726 12.7774C16.6362 12.4188 17.1362 12.1946 17.6817 12.1049C17.909 12.105 18.0908 11.9256 18.0908 11.7015Z" fill="#FFE27A"/>
        <path d="M16.1363 15.1088C16.1363 13.8534 17.1363 12.8671 18.409 12.8671C18.9545 12.8671 19.4545 13.0464 19.8636 13.4051C19.409 12.8671 18.8181 12.5533 18.0908 12.5533C16.8181 12.5533 15.8181 13.5396 15.8181 14.7949C15.8181 15.5123 16.1363 16.0951 16.6363 16.4986C16.3181 16.1399 16.1363 15.6468 16.1363 15.1088Z" fill="#F19920"/>
        <path d="M19.4545 16.1847C19.4091 16.1847 19.3636 16.1847 19.3182 16.1399C19.2273 16.0502 19.2273 15.9157 19.3182 15.8261C19.5909 15.5571 19.7273 15.1536 19.7273 14.7949C19.7273 14.6604 19.8182 14.5707 19.9545 14.5707C20.0909 14.5707 20.1818 14.6604 20.1818 14.7949C20.1818 15.2881 20 15.7812 19.6818 16.1399C19.5909 16.1847 19.5 16.1847 19.4545 16.1847Z" fill="#FFCB5B"/>
        <path d="M18.0908 16.1399C17.818 16.1399 17.6362 15.9606 17.6362 15.6916V13.8983C17.6362 13.6293 17.8181 13.45 18.0908 13.45C18.3635 13.45 18.5453 13.6293 18.5453 13.8983V15.6916C18.5453 15.9606 18.3635 16.1399 18.0908 16.1399Z" fill="#F19920"/>
    </g>
    <defs>
        <filter id="filter0_d_39_726" x="0" y="0" width="28" height="25.9333" filterUnits="userSpaceOnUse" color-interpolation-filters="sRGB">
            <feFlood flood-opacity="0" result="BackgroundImageFix"/>
            <feColorMatrix in="SourceAlpha" type="matrix" values="0 0 0 0 0 0 0 0 0 0 0 0 0 0 0 0 0 0 127 0" result="hardAlpha"/>
            <feOffset dy="4"/>
            <feGaussianBlur stdDeviation="2"/>
            <feComposite in2="hardAlpha" operator="out"/>
            <feColorMatrix type="matrix" values="0 0 0 0 0 0 0 0 0 0 0 0 0 0 0 0 0 0 0.25 0"/>
            <feBlend mode="normal" in2="BackgroundImageFix" result="effect1_dropShadow_39_726"/>
            <feBlend mode="normal" in="SourceGraphic" in2="effect1_dropShadow_39_726" result="shape"/>
        </filter>
    </defs>
</svg>
