<svg width="31" height="25" viewBox="0 0 31 25" fill="none" xmlns="http://www.w3.org/2000/svg">
<g filter="url(#filter0_d_31_136)">
<path d="M21.1936 9.94863L7.85515 13.936C7.19022 14.1348 6.49011 13.7569 6.29139 13.092L4.05299 5.60424C3.85418 4.93931 4.23208 4.2392 4.89701 4.04048L18.2354 0.0529926C18.9004 -0.145822 19.6005 0.232084 19.7992 0.897013L22.0377 8.38477C22.2364 9.0497 21.8585 9.74981 21.1936 9.94863Z" fill="#F79219"/>
<path d="M4.04956 5.60419L19.794 0.903872L20.4791 3.19866L4.73464 7.89897L4.04956 5.60419Z" fill="#EF7816"/>
<path d="M19.4655 5.65885L6.74643 9.4612C6.51759 9.52959 6.27655 9.39956 6.20816 9.17071C6.13978 8.94187 6.26981 8.70083 6.49866 8.63235L19.2177 4.82999C19.4466 4.7616 19.6876 4.89164 19.7561 5.12048C19.8245 5.34943 19.6944 5.59046 19.4655 5.65885Z" fill="#FFA91A"/>
<path d="M14.9133 9.1416L7.32856 11.409C7.09972 11.4774 6.85868 11.3474 6.7902 11.1185C6.72181 10.8897 6.85184 10.6487 7.08069 10.5803L14.6654 8.31284C14.8942 8.24445 15.1353 8.37449 15.2036 8.60343C15.2722 8.83218 15.1421 9.07311 14.9133 9.1416Z" fill="#FFA91A"/>
<path d="M25.6108 17H11.6891C10.9952 17 10.4326 16.4375 10.4326 15.7435V7.92827C10.4326 7.2343 10.9952 6.67175 11.6891 6.67175H25.6108C26.3048 6.67175 26.8673 7.2343 26.8673 7.92827V15.7435C26.8673 16.4375 26.3048 17 25.6108 17Z" fill="#3C58BF"/>
<path d="M11.0268 12.4505C10.9178 12.4505 10.8286 12.3613 10.8286 12.2523C10.8286 12.1423 10.9178 12.0531 11.0268 12.0531C11.1368 12.0531 11.2251 12.1423 11.2251 12.2523C11.2251 12.3613 11.1368 12.4505 11.0268 12.4505ZM11.0268 11.6567C10.9178 11.6567 10.8286 11.5685 10.8286 11.4594V7.92815C10.8296 7.4544 11.2151 7.06886 11.6889 7.06787H19.2302C19.3401 7.06787 19.4284 7.15707 19.4284 7.26609C19.4284 7.3761 19.3401 7.46431 19.2302 7.46431H11.6889C11.4342 7.4653 11.226 7.67343 11.2251 7.92815V11.4594C11.2251 11.5685 11.1368 11.6567 11.0268 11.6567Z" fill="#5E9CF7"/>
<path d="M25.8527 6.69574C25.8679 6.77404 25.8765 6.85471 25.8765 6.93737V14.7526C25.8765 15.4466 25.3139 16.0091 24.62 16.0091H10.6983C10.6155 16.0091 10.5348 16.0006 10.4565 15.9853C10.5693 16.5635 11.0781 17.0002 11.6894 17.0002H25.6111C26.305 17.0002 26.8676 16.4377 26.8676 15.7437V7.92847C26.8676 7.31726 26.431 6.80843 25.8527 6.69574Z" fill="#3C58BF"/>
<path d="M26.2162 6.82733C26.3152 7.00692 26.3718 7.21317 26.3718 7.4327V15.2479C26.3718 15.9419 25.8092 16.5044 25.1153 16.5044H11.1936C10.974 16.5044 10.7678 16.4478 10.5881 16.3488C10.802 16.7368 11.2147 17 11.6891 17H25.6108C26.3048 17 26.8673 16.4374 26.8673 15.7435V7.92825C26.8673 7.45391 26.6043 7.04111 26.2162 6.82733Z" fill="#3C58BF"/>
<path d="M13.5969 11.3792H12.2565C11.9789 11.3792 11.7539 11.1541 11.7539 10.8766V9.53634C11.7539 9.25873 11.9789 9.03375 12.2565 9.03375H13.5969C13.8745 9.03375 14.0994 9.25883 14.0994 9.53634V10.8766C14.0994 11.1541 13.8745 11.3792 13.5969 11.3792Z" fill="#FFA91A"/>
<path d="M13.2311 10.7089H12.6223C12.5128 10.7089 12.4241 10.6202 12.4241 10.5107V9.90189C12.4241 9.79238 12.5128 9.70367 12.6223 9.70367H13.2311C13.3406 9.70367 13.4293 9.79238 13.4293 9.90189V10.5107C13.4293 10.6202 13.3406 10.7089 13.2311 10.7089Z" fill="#F79219"/>
<path d="M13.9449 13.9891H11.9083C11.6695 13.9891 11.4758 13.7954 11.4758 13.5565C11.4758 13.3177 11.6695 13.124 11.9083 13.124H13.9448C14.1836 13.124 14.3773 13.3177 14.3773 13.5565C14.3774 13.7954 14.1837 13.9891 13.9449 13.9891Z" fill="#FFA91A"/>
<path d="M17.6913 13.9891H15.6549C15.4161 13.9891 15.2224 13.7954 15.2224 13.5565C15.2224 13.3177 15.4161 13.124 15.6549 13.124H17.6913C17.9302 13.124 18.1239 13.3177 18.1239 13.5565C18.1239 13.7954 17.9302 13.9891 17.6913 13.9891Z" fill="#FFA91A"/>
<path d="M21.4374 13.9891H19.401C19.1622 13.9891 18.9685 13.7954 18.9685 13.5565C18.9685 13.3177 19.1622 13.124 19.401 13.124H21.4374C21.6763 13.124 21.87 13.3177 21.87 13.5565C21.87 13.7954 21.6763 13.9891 21.4374 13.9891Z" fill="#FFA91A"/>
<path d="M25.1838 13.9891H23.1474C22.9085 13.9891 22.7148 13.7954 22.7148 13.5565C22.7148 13.3177 22.9085 13.124 23.1474 13.124H25.1838C25.4226 13.124 25.6163 13.3177 25.6163 13.5565C25.6163 13.7954 25.4226 13.9891 25.1838 13.9891Z" fill="#FFA91A"/>
<path d="M19.8248 15.6309H11.9083C11.6695 15.6309 11.4758 15.4372 11.4758 15.1984C11.4758 14.9595 11.6695 14.7659 11.9083 14.7659H19.8247C20.0635 14.7659 20.2572 14.9595 20.2572 15.1984C20.2573 15.4372 20.0636 15.6309 19.8248 15.6309Z" fill="#FFA91A"/>
</g>
<defs>
<filter id="filter0_d_31_136" x="0" y="0" width="30.8677" height="25.0002" filterUnits="userSpaceOnUse" color-interpolation-filters="sRGB">
<feFlood flood-opacity="0" result="BackgroundImageFix"/>
<feColorMatrix in="SourceAlpha" type="matrix" values="0 0 0 0 0 0 0 0 0 0 0 0 0 0 0 0 0 0 127 0" result="hardAlpha"/>
<feOffset dy="4"/>
<feGaussianBlur stdDeviation="2"/>
<feComposite in2="hardAlpha" operator="out"/>
<feColorMatrix type="matrix" values="0 0 0 0 0 0 0 0 0 0 0 0 0 0 0 0 0 0 0.25 0"/>
<feBlend mode="normal" in2="BackgroundImageFix" result="effect1_dropShadow_31_136"/>
<feBlend mode="normal" in="SourceGraphic" in2="effect1_dropShadow_31_136" result="shape"/>
</filter>
</defs>
</svg>
