<svg width="23" height="25" viewBox="0 0 23 25" fill="none" xmlns="http://www.w3.org/2000/svg">
<g filter="url(#filter0_d_48_406)">
<path d="M4 1.9495V3.2784C4 3.47411 4.17808 3.63278 4.39815 3.63278H5.89123C6.11131 3.63278 6.28939 3.47411 6.28939 3.2784C6.28939 3.0827 6.11131 2.92403 5.89123 2.92403H5.36137C8.78271 -0.0493887 14.2813 -0.0310464 17.6718 2.98632C17.8273 3.12474 18.0793 3.12475 18.2348 2.98632C18.3903 2.84789 18.3903 2.62364 18.2348 2.48522C14.5333 -0.809268 8.52784 -0.82709 4.79631 2.42457V1.9495C4.79631 1.7538 4.61823 1.59513 4.39815 1.59513C4.17808 1.59513 4 1.7538 4 1.9495Z" fill="#103164"/>
<path d="M18.6019 15.3935C18.8219 15.3935 19 15.2349 19 15.0392V13.7103C19 13.5146 18.8219 13.3559 18.6019 13.3559H17.1088C16.8887 13.3559 16.7106 13.5146 16.7106 13.7103C16.7106 13.906 16.8887 14.0646 17.1088 14.0646H17.6062C14.1857 17.0481 8.67823 17.0326 5.28391 14.0119C5.12838 13.8734 4.87642 13.8734 4.72089 14.0119C4.56537 14.1503 4.56536 14.3745 4.72089 14.513C6.58374 16.171 9.03099 17 11.4779 17C13.9116 17 16.3446 16.1783 18.2037 14.538V15.0392C18.2037 15.2349 18.3818 15.3935 18.6019 15.3935Z" fill="#103164"/>
<path d="M11.2339 8.82634C11.4794 8.90311 11.7757 8.73579 12.1158 9.14827C12.346 9.42651 12.3141 9.8392 12.0435 10.0878C11.8817 10.2365 11.6523 10.3175 11.4361 10.3135C11.2071 10.3105 10.996 10.2263 10.842 10.0761C10.6935 9.93143 10.4419 9.92191 10.2794 10.0536C10.1172 10.1858 10.106 10.4099 10.2541 10.5543C10.4803 10.7744 10.7788 10.9249 11.1025 10.9883V11.5723C11.1025 11.768 11.2806 11.9267 11.5007 11.9267C11.7207 11.9267 11.8988 11.768 11.8988 11.5723V10.9592C12.167 10.8902 12.4144 10.7661 12.6158 10.581C13.1578 10.0828 13.2185 9.28636 12.7573 8.72832C12.0573 7.88097 11.4268 8.38059 10.9482 7.91454C10.7985 7.76902 10.7215 7.58111 10.7312 7.38506C10.7517 6.97242 11.15 6.66332 11.5889 6.68306C11.8086 6.69137 12.0124 6.77598 12.1617 6.9215C12.3102 7.06633 12.5625 7.07585 12.7243 6.94382C12.8864 6.8118 12.8977 6.58754 12.7496 6.44323C12.5199 6.21967 12.2237 6.07233 11.8988 6.00961V5.42597C11.8988 5.23027 11.7207 5.07159 11.5007 5.07159C11.2806 5.07159 11.1025 5.23027 11.1025 5.42597V6.03678C10.4087 6.21648 9.96484 6.75209 9.93567 7.35409C9.90241 8.02603 10.3945 8.66957 11.2339 8.82634Z" fill="#103164"/>
<path d="M11.4999 14.1842C15.0218 14.1842 17.8875 11.6339 17.8875 8.499C17.8875 5.36431 15.0218 2.81396 11.4999 2.81396C7.97793 2.81396 5.1123 5.36431 5.1123 8.499C5.1123 11.6339 7.97793 14.1842 11.4999 14.1842ZM11.4999 3.52271C14.5829 3.52271 17.0911 5.75503 17.0911 8.499C17.0911 11.243 14.5829 13.4755 11.4999 13.4755C8.4169 13.4755 5.90861 11.243 5.90861 8.499C5.90861 5.75502 8.41691 3.52271 11.4999 3.52271Z" fill="#103164"/>
</g>
<defs>
<filter id="filter0_d_48_406" x="0" y="0" width="23" height="25" filterUnits="userSpaceOnUse" color-interpolation-filters="sRGB">
<feFlood flood-opacity="0" result="BackgroundImageFix"/>
<feColorMatrix in="SourceAlpha" type="matrix" values="0 0 0 0 0 0 0 0 0 0 0 0 0 0 0 0 0 0 127 0" result="hardAlpha"/>
<feOffset dy="4"/>
<feGaussianBlur stdDeviation="2"/>
<feComposite in2="hardAlpha" operator="out"/>
<feColorMatrix type="matrix" values="0 0 0 0 0 0 0 0 0 0 0 0 0 0 0 0 0 0 0.25 0"/>
<feBlend mode="normal" in2="BackgroundImageFix" result="effect1_dropShadow_48_406"/>
<feBlend mode="normal" in="SourceGraphic" in2="effect1_dropShadow_48_406" result="shape"/>
</filter>
</defs>
</svg>
