<svg width="24" height="24" viewBox="0 0 24 24" fill="none" xmlns="http://www.w3.org/2000/svg">
<g filter="url(#filter0_d_45_6)">
<path d="M18.1662 2.50038C18.1662 1.89991 17.6934 1.41315 17.1103 1.41315H16.423C15.9977 1.41315 7.59287 1.41315 7.31197 1.41315C7.05462 1.41315 5.38984 1.41315 5.05591 1.41315C4.47281 1.41315 4 1.89994 4 2.50038V14.9127C4 15.2235 4.12684 15.5036 4.32987 15.7017H17.1103V16H18.9598C19.4143 16 19.8016 15.7044 19.9505 15.2896C20.0739 14.9539 20.1175 15.5958 18.1662 2.50038Z" fill="#BABABA"/>
<path d="M18.8109 14.9128V6.82768L18.1661 2.50038C18.1661 1.89991 17.6934 1.41315 17.1102 1.41315C16.7645 1.41315 8.43815 1.41315 7.95671 1.41315H7.31193H7.05402C6.45677 1.41315 6.65768 1.41315 5.70068 1.41315C5.11759 1.41315 4.64478 1.89991 4.64478 2.50038V14.9127C4.64478 15.2235 4.77162 15.5036 4.97465 15.7017H17.1103V16H17.755C18.3381 16 18.8109 15.5133 18.8109 14.9128Z" fill="#A8A8A8"/>
<path d="M17.1103 1.41315C16.7408 1.41315 7.92046 1.41315 7.31197 1.41315C6.94765 1.41315 5.30222 1.41315 5.05591 1.41315C4.47281 1.41315 4 1.89994 4 2.50038V14.9127C4 15.5132 4.47281 16 5.05591 16H17.1102C17.6934 16 18.1662 15.5132 18.1662 14.9127V2.50038C18.1662 1.89994 17.6934 1.41315 17.1103 1.41315Z" fill="#E6E6E6"/>
<path d="M4.64478 14.9128V2.50038C4.64478 1.89991 5.11759 1.41315 5.70069 1.41315C5.33725 1.41315 5.4205 1.41315 5.05591 1.41315C4.47281 1.41315 4 1.89994 4 2.50038V14.9127C4 15.5132 4.47281 16 5.05591 16H5.70069C5.11762 16 4.64478 15.5133 4.64478 14.9128Z" fill="#CCCBCA"/>
<path d="M17.1103 1.41315C16.6908 1.41315 8.01212 1.41315 7.31197 1.41315C4.81206 1.41315 7.39603 1.41315 5.05591 1.41315C4.47281 1.41315 4 1.89994 4 2.50038V5.29332H18.1662V2.50038C18.1662 1.89994 17.6934 1.41315 17.1103 1.41315Z" fill="#EA473B"/>
<path d="M4.64478 2.50038C4.64478 1.89991 5.11759 1.41315 5.70069 1.41315C5.33725 1.41315 5.4205 1.41315 5.05591 1.41315C4.47281 1.41315 4 1.89994 4 2.50038V5.29332H4.64478V2.50038Z" fill="#D63322"/>
<path d="M15.3074 2.38519V2.61153C15.3074 2.83157 15.1342 2.84393 14.9205 2.84393H14.7916C14.5779 2.84393 14.4047 2.83157 14.4047 2.61153V2.38523C14.2001 2.53222 14.0662 2.77619 14.0662 3.05254C14.0662 3.50174 14.4198 3.86587 14.856 3.86587C15.6297 3.86584 15.937 2.83762 15.3074 2.38519Z" fill="#414356"/>
<path d="M11.3096 2.38519V2.61153C11.3096 2.83157 11.1364 2.81072 10.9227 2.81072H10.7938C10.5801 2.81072 10.4069 2.83157 10.4069 2.61153V2.38523C10.2023 2.53222 10.0684 2.77619 10.0684 3.05254C10.0684 3.50174 10.422 3.86587 10.8582 3.86587C11.2945 3.86587 11.6481 3.50174 11.6481 3.05254C11.6481 2.77619 11.5141 2.53218 11.3096 2.38519Z" fill="#414356"/>
<path d="M7.31193 2.38519V2.61153C7.31193 2.86806 7.07746 2.84393 6.79609 2.84393C6.58243 2.84393 6.40921 2.83157 6.40921 2.61153V2.38523C5.77899 2.8381 6.0879 3.86587 6.86056 3.86587C7.29681 3.86587 7.65043 3.50174 7.65043 3.05254C7.65043 2.77619 7.51646 2.53218 7.31193 2.38519Z" fill="#414356"/>
<path d="M14.7432 3.05252C14.7432 3.03711 14.7438 3.02185 14.7446 3.00667C14.5531 2.98276 14.4047 2.81514 14.4047 2.61152V2.38521C14.2001 2.5322 14.0662 2.77617 14.0662 3.05252C14.0662 3.50173 14.4198 3.86586 14.856 3.86586C14.9772 3.86586 15.0919 3.8377 15.1946 3.78747C14.9277 3.65692 14.7432 3.37694 14.7432 3.05252Z" fill="#2F3242"/>
<path d="M10.7457 3.05252C10.7457 3.03711 10.7462 3.02185 10.747 3.00667C10.5556 2.98276 10.4071 2.81514 10.4071 2.61152V2.38521C10.2026 2.5322 10.0686 2.77617 10.0686 3.05252C10.0686 3.50173 10.4223 3.86586 10.8585 3.86586C10.9796 3.86586 11.0944 3.8377 11.197 3.78747C10.9302 3.65692 10.7457 3.37694 10.7457 3.05252Z" fill="#2F3242"/>
<path d="M6.74924 3.00667C6.55777 2.98276 6.40933 2.81514 6.40933 2.61152V2.38521C6.20477 2.5322 6.0708 2.77617 6.0708 3.05252C6.0708 3.65155 6.67843 4.04229 7.19917 3.78747C6.91624 3.64901 6.73093 3.34637 6.74924 3.00667Z" fill="#2F3242"/>
<path d="M18.1662 5.2932H4V6.22273H18.1662V5.2932Z" fill="#F77C79"/>
<path d="M4.64478 5.2932H4V6.22273H4.64478V5.2932Z" fill="#DD6464"/>
<path d="M6.92502 0C7.13871 0 7.3119 0.178364 7.3119 0.398366V2.61152C7.3119 2.83155 7.13871 3.00988 6.92502 3.00988H6.79605C6.5824 3.00988 6.40918 2.83155 6.40918 2.61152V0.398366C6.40918 0.178364 6.5824 0 6.79605 0H6.92502Z" fill="#585A60"/>
<path d="M10.9228 0C11.1365 0 11.3097 0.178364 11.3097 0.398366V2.61152C11.3097 2.83155 11.1365 3.00988 10.9228 3.00988H10.7939C10.5802 3.00988 10.407 2.83155 10.407 2.61152V0.398366C10.407 0.178364 10.5802 0 10.7939 0H10.9228Z" fill="#585A60"/>
<path d="M14.9206 0C15.1343 0 15.3075 0.178364 15.3075 0.398366V2.61152C15.3075 2.83155 15.1343 3.00988 14.9206 3.00988H14.7917C14.578 3.00988 14.4048 2.83155 14.4048 2.61152V0.398366C14.4048 0.178364 14.578 0 14.7917 0H14.9206Z" fill="#585A60"/>
<path d="M6.92502 0C7.13871 0 7.3119 0.178364 7.3119 0.398366V2.61152C7.3119 2.83155 7.13871 3.00988 6.92502 3.00988H6.79605C6.5824 3.00988 6.40918 2.83155 6.40918 2.61152V0.398366C6.40918 0.178364 6.5824 0 6.79605 0H6.92502Z" fill="#585A60"/>
<path d="M10.9228 0C11.1365 0 11.3097 0.178364 11.3097 0.398366V2.61152C11.3097 2.83155 11.1365 3.00988 10.9228 3.00988H10.7939C10.5802 3.00988 10.407 2.83155 10.407 2.61152V0.398366C10.407 0.178364 10.5802 0 10.7939 0H10.9228Z" fill="#585A60"/>
<path d="M14.9206 0C15.1343 0 15.3075 0.178364 15.3075 0.398366V2.61152C15.3075 2.83155 15.1343 3.00988 14.9206 3.00988H14.7917C14.578 3.00988 14.4048 2.83155 14.4048 2.61152V0.398366C14.4048 0.178364 14.578 0 14.7917 0H14.9206Z" fill="#585A60"/>
<path d="M6.86052 2.61152V0.398366C6.86052 0.237668 6.95315 0.0995593 7.08621 0.0365544C7.03709 0.0133218 6.98262 0 6.92502 0H6.79605C6.5824 0 6.40918 0.178364 6.40918 0.398366V2.61152C6.40918 2.83155 6.5824 3.00988 6.79605 3.00988H6.92502C6.98265 3.00988 7.03712 2.99656 7.08621 2.97333C6.95315 2.91036 6.86052 2.77222 6.86052 2.61152Z" fill="#414356"/>
<path d="M10.8583 2.61152V0.398366C10.8583 0.237668 10.951 0.0995593 11.084 0.0365544C11.0349 0.0133218 10.9804 0 10.9228 0H10.7939C10.5802 0 10.407 0.178364 10.407 0.398366V2.61152C10.407 2.83155 10.5802 3.00988 10.7939 3.00988H10.9228C10.9805 3.00988 11.0349 2.99656 11.084 2.97333C10.951 2.91036 10.8583 2.77222 10.8583 2.61152Z" fill="#414356"/>
<path d="M14.8559 2.61152V0.398366C14.8559 0.237668 14.9485 0.0995593 15.0816 0.0365544C15.0324 0.0133218 14.978 0 14.9204 0H14.7914C14.5778 0 14.4045 0.178364 14.4045 0.398366V2.61152C14.4045 2.83155 14.5778 3.00988 14.7914 3.00988H14.9204C14.978 3.00988 15.0325 2.99656 15.0816 2.97333C14.9485 2.91036 14.8559 2.77222 14.8559 2.61152Z" fill="#414356"/>
<path d="M9.26908 7.74832H8.47301C8.33948 7.74832 8.2312 7.85979 8.2312 7.99732C8.2312 8.13481 8.33948 8.24631 8.47301 8.24631H9.26908C9.40264 8.24631 9.51089 8.13485 9.51089 7.99732C9.51089 7.85982 9.40264 7.74832 9.26908 7.74832Z" fill="#585A60"/>
<path d="M11.4823 7.74832H10.6861C10.5526 7.74832 10.4443 7.85979 10.4443 7.99732C10.4443 8.13481 10.5526 8.24631 10.6861 8.24631H11.4823C11.6159 8.24631 11.7241 8.13485 11.7241 7.99732C11.7241 7.85982 11.6159 7.74832 11.4823 7.74832Z" fill="#585A60"/>
<path d="M13.6952 7.74832H12.899C12.7655 7.74832 12.6572 7.85979 12.6572 7.99732C12.6572 8.13481 12.7655 8.24631 12.899 8.24631H13.6952C13.8288 8.24631 13.937 8.13485 13.937 7.99732C13.937 7.85982 13.8288 7.74832 13.6952 7.74832Z" fill="#585A60"/>
<path d="M15.9083 7.74832H15.1122C14.9786 7.74832 14.8704 7.85979 14.8704 7.99732C14.8704 8.13481 14.9786 8.24631 15.1122 8.24631H15.9083C16.0419 8.24631 16.1501 8.13485 16.1501 7.99732C16.1501 7.85982 16.0419 7.74832 15.9083 7.74832Z" fill="#585A60"/>
<path d="M7.05603 9.7543H6.25988C6.12635 9.7543 6.01807 9.86577 6.01807 10.0033C6.01807 10.1408 6.12635 10.2523 6.25988 10.2523H7.05603C7.1896 10.2523 7.29785 10.1408 7.29785 10.0033C7.29782 9.86577 7.1896 9.7543 7.05603 9.7543Z" fill="#585A60"/>
<path d="M9.26908 9.7543H8.47301C8.33948 9.7543 8.2312 9.86577 8.2312 10.0033C8.2312 10.1408 8.33948 10.2523 8.47301 10.2523H9.26908C9.40264 10.2523 9.51089 10.1408 9.51089 10.0033C9.51089 9.86577 9.40264 9.7543 9.26908 9.7543Z" fill="#585A60"/>
<path d="M11.4823 9.7543H10.6861C10.5526 9.7543 10.4443 9.86577 10.4443 10.0033C10.4443 10.1408 10.5526 10.2523 10.6861 10.2523H11.4823C11.6159 10.2523 11.7241 10.1408 11.7241 10.0033C11.7241 9.86577 11.6159 9.7543 11.4823 9.7543Z" fill="#585A60"/>
<path d="M13.6952 9.7543H12.899C12.7655 9.7543 12.6572 9.86577 12.6572 10.0033C12.6572 10.1408 12.7655 10.2523 12.899 10.2523H13.6952C13.8288 10.2523 13.937 10.1408 13.937 10.0033C13.937 9.86577 13.8288 9.7543 13.6952 9.7543Z" fill="#585A60"/>
<path d="M15.9083 9.7543H15.1122C14.9786 9.7543 14.8704 9.86577 14.8704 10.0033C14.8704 10.1408 14.9786 10.2523 15.1122 10.2523H15.9083C16.0419 10.2523 16.1501 10.1408 16.1501 10.0033C16.1501 9.86577 16.0419 9.7543 15.9083 9.7543Z" fill="#585A60"/>
<path d="M7.05603 11.7603H6.25988C6.12635 11.7603 6.01807 11.8717 6.01807 12.0093C6.01807 12.1468 6.12635 12.2583 6.25988 12.2583H7.05603C7.1896 12.2583 7.29785 12.1468 7.29785 12.0093C7.29785 11.8717 7.1896 11.7603 7.05603 11.7603Z" fill="#585A60"/>
<path d="M9.26908 11.7603H8.47301C8.33948 11.7603 8.2312 11.8717 8.2312 12.0093C8.2312 12.1468 8.33948 12.2583 8.47301 12.2583H9.26908C9.40264 12.2583 9.51089 12.1468 9.51089 12.0093C9.51089 11.8717 9.40264 11.7603 9.26908 11.7603Z" fill="#585A60"/>
<path d="M11.4823 11.7603H10.6861C10.5526 11.7603 10.4443 11.8717 10.4443 12.0093C10.4443 12.1468 10.5526 12.2583 10.6861 12.2583H11.4823C11.6159 12.2583 11.7241 12.1468 11.7241 12.0093C11.7241 11.8717 11.6159 11.7603 11.4823 11.7603Z" fill="#585A60"/>
<path d="M13.6952 11.7603H12.899C12.7655 11.7603 12.6572 11.8717 12.6572 12.0093C12.6572 12.1468 12.7655 12.2583 12.899 12.2583H13.6952C13.8288 12.2583 13.937 12.1468 13.937 12.0093C13.937 11.8717 13.8288 11.7603 13.6952 11.7603Z" fill="#585A60"/>
<path d="M15.9083 11.7603H15.1122C14.9786 11.7603 14.8704 11.8717 14.8704 12.0093C14.8704 12.1468 14.9786 12.2583 15.1122 12.2583H15.9083C16.0419 12.2583 16.1501 12.1468 16.1501 12.0093C16.1501 11.8717 16.0419 11.7603 15.9083 11.7603Z" fill="#585A60"/>
<path d="M7.05603 13.7663H6.25988C6.12635 13.7663 6.01807 13.8778 6.01807 14.0153C6.01807 14.1528 6.12635 14.2643 6.25988 14.2643H7.05603C7.1896 14.2643 7.29785 14.1529 7.29785 14.0153C7.29782 13.8778 7.1896 13.7663 7.05603 13.7663Z" fill="#585A60"/>
<path d="M9.26908 13.7663H8.47301C8.33948 13.7663 8.2312 13.8778 8.2312 14.0153C8.2312 14.1528 8.33948 14.2643 8.47301 14.2643H9.26908C9.40264 14.2643 9.51089 14.1529 9.51089 14.0153C9.51089 13.8778 9.40264 13.7663 9.26908 13.7663Z" fill="#585A60"/>
<path d="M11.4823 13.7663H10.6861C10.5526 13.7663 10.4443 13.8778 10.4443 14.0153C10.4443 14.1528 10.5526 14.2643 10.6861 14.2643H11.4823C11.6159 14.2643 11.7241 14.1529 11.7241 14.0153C11.7241 13.8778 11.6159 13.7663 11.4823 13.7663Z" fill="#585A60"/>
<path d="M13.6952 13.7663H12.899C12.7655 13.7663 12.6572 13.8778 12.6572 14.0153C12.6572 14.1528 12.7655 14.2643 12.899 14.2643H13.6952C13.8288 14.2643 13.937 14.1529 13.937 14.0153C13.937 13.8778 13.8288 13.7663 13.6952 13.7663Z" fill="#585A60"/>
</g>
<defs>
<filter id="filter0_d_45_6" x="0" y="0" width="24" height="24" filterUnits="userSpaceOnUse" color-interpolation-filters="sRGB">
<feFlood flood-opacity="0" result="BackgroundImageFix"/>
<feColorMatrix in="SourceAlpha" type="matrix" values="0 0 0 0 0 0 0 0 0 0 0 0 0 0 0 0 0 0 127 0" result="hardAlpha"/>
<feOffset dy="4"/>
<feGaussianBlur stdDeviation="2"/>
<feComposite in2="hardAlpha" operator="out"/>
<feColorMatrix type="matrix" values="0 0 0 0 0 0 0 0 0 0 0 0 0 0 0 0 0 0 0.25 0"/>
<feBlend mode="normal" in2="BackgroundImageFix" result="effect1_dropShadow_45_6"/>
<feBlend mode="normal" in="SourceGraphic" in2="effect1_dropShadow_45_6" result="shape"/>
</filter>
</defs>
</svg>
