<svg width="9" height="9" viewBox="0 0 9 9" fill="none" xmlns="http://www.w3.org/2000/svg">
<path d="M1 2.47839H1.73919H7.65272" stroke="#868D8D" stroke-linecap="round" stroke-linejoin="round"/>
<path d="M2.84804 2.47838V1.73919C2.84804 1.54315 2.92592 1.35513 3.06455 1.2165C3.20317 1.07788 3.39119 1 3.58724 1H5.06562C5.26166 1 5.44968 1.07788 5.58831 1.2165C5.72693 1.35513 5.80481 1.54315 5.80481 1.73919V2.47838M6.9136 2.47838V7.65272C6.9136 7.84877 6.83572 8.03678 6.69709 8.17541C6.55847 8.31403 6.37045 8.39191 6.17441 8.39191H2.47845C2.2824 8.39191 2.09439 8.31403 1.95576 8.17541C1.81714 8.03678 1.73926 7.84877 1.73926 7.65272V2.47838H6.9136Z" stroke="#868D8D" stroke-linecap="round" stroke-linejoin="round"/>
<path d="M3.58716 4.32635V6.54393" stroke="#868D8D" stroke-linecap="round" stroke-linejoin="round"/>
<path d="M5.06567 4.32635V6.54393" stroke="#868D8D" stroke-linecap="round" stroke-linejoin="round"/>
</svg>
