<svg width="23" height="23" viewBox="0 0 23 23" fill="none" xmlns="http://www.w3.org/2000/svg">
<g filter="url(#filter0_d_48_378)">
<path d="M11.5 15C9.49668 15 7.61324 14.2199 6.19668 12.8033C4.78012 11.3868 4 9.50332 4 7.5C4 5.49668 4.78015 3.61327 6.19668 2.19668C7.61321 0.780088 9.49668 0 11.5 0C13.5033 0 15.3868 0.780117 16.8033 2.19668C18.2199 3.61324 19 5.49668 19 7.5C19 9.50332 18.2199 11.3867 16.8033 12.8033C15.3868 14.2199 13.5033 15 11.5 15ZM11.5 0.9375C7.88143 0.9375 4.9375 3.88143 4.9375 7.5C4.9375 11.1186 7.88143 14.0625 11.5 14.0625C15.1186 14.0625 18.0625 11.1186 18.0625 7.5C18.0625 3.88143 15.1186 0.9375 11.5 0.9375Z" fill="#103164"/>
<path d="M11.5 7.03125C10.8538 7.03125 10.3281 6.50555 10.3281 5.85938C10.3281 5.2132 10.8538 4.6875 11.5 4.6875C12.1462 4.6875 12.6719 5.2132 12.6719 5.85938C12.6719 6.11824 12.8817 6.32812 13.1406 6.32812C13.3995 6.32812 13.6094 6.11824 13.6094 5.85938C13.6094 4.85739 12.9069 4.01695 11.9688 3.80314V3.28125C11.9688 3.02238 11.7589 2.8125 11.5 2.8125C11.2411 2.8125 11.0312 3.02238 11.0312 3.28125V3.80314C10.0931 4.01695 9.39062 4.85739 9.39062 5.85938C9.39062 7.02249 10.3369 7.96875 11.5 7.96875C12.1462 7.96875 12.6719 8.49445 12.6719 9.14062C12.6719 9.7868 12.1462 10.3125 11.5 10.3125C10.8538 10.3125 10.3281 9.7868 10.3281 9.14062C10.3281 8.88176 10.1183 8.67188 9.85938 8.67188C9.60048 8.67188 9.39062 8.88176 9.39062 9.14062C9.39062 10.1426 10.0931 10.983 11.0312 11.1969V11.7188C11.0312 11.9776 11.2411 12.1875 11.5 12.1875C11.7589 12.1875 11.9688 11.9776 11.9688 11.7188V11.1969C12.9069 10.983 13.6094 10.1426 13.6094 9.14062C13.6094 7.97751 12.6631 7.03125 11.5 7.03125Z" fill="#103164"/>
</g>
<defs>
<filter id="filter0_d_48_378" x="0" y="0" width="23" height="23" filterUnits="userSpaceOnUse" color-interpolation-filters="sRGB">
<feFlood flood-opacity="0" result="BackgroundImageFix"/>
<feColorMatrix in="SourceAlpha" type="matrix" values="0 0 0 0 0 0 0 0 0 0 0 0 0 0 0 0 0 0 127 0" result="hardAlpha"/>
<feOffset dy="4"/>
<feGaussianBlur stdDeviation="2"/>
<feComposite in2="hardAlpha" operator="out"/>
<feColorMatrix type="matrix" values="0 0 0 0 0 0 0 0 0 0 0 0 0 0 0 0 0 0 0.25 0"/>
<feBlend mode="normal" in2="BackgroundImageFix" result="effect1_dropShadow_48_378"/>
<feBlend mode="normal" in="SourceGraphic" in2="effect1_dropShadow_48_378" result="shape"/>
</filter>
</defs>
</svg>
