<svg width="23" height="23" viewBox="0 0 23 23" fill="none" xmlns="http://www.w3.org/2000/svg">
<path fill-rule="evenodd" clip-rule="evenodd" d="M11.5 0C5.15703 0 0 5.15703 0 11.5C0 17.843 5.15703 23 11.5 23C17.843 23 23 17.843 23 11.5C23 5.15703 17.843 0 11.5 0Z" fill="#F34235"/>
<path fill-rule="evenodd" clip-rule="evenodd" d="M16.4414 12.3311C16.4414 15.0578 14.2223 17.2725 11.5 17.2725C8.77324 17.2725 6.55859 15.0533 6.55859 12.3311C6.55859 10.651 7.39863 9.10117 8.80918 8.18926C9.1416 7.97363 9.58633 8.06797 9.80195 8.40039C10.0176 8.73281 9.92324 9.17754 9.59082 9.39316C8.58906 10.04 7.99609 11.1406 7.99609 12.3311C7.99609 14.2627 9.56836 15.835 11.5 15.835C13.4316 15.835 15.0039 14.2627 15.0039 12.3311C15.0039 11.1406 14.4064 10.04 13.4092 9.39316C13.0768 9.17754 12.9824 8.73281 13.198 8.40039C13.4137 8.06797 13.8584 7.97363 14.1908 8.18926C15.6014 9.10117 16.4414 10.651 16.4414 12.3311ZM10.7812 9.76602V6.44629C10.7812 6.05098 11.1047 5.72754 11.5 5.72754C11.8953 5.72754 12.2188 6.05098 12.2188 6.44629V9.76602C12.2188 10.1613 11.8953 10.4848 11.5 10.4848C11.1047 10.4848 10.7812 10.1613 10.7812 9.76602Z" fill="white"/>
</svg>
