<svg width="24" height="24" viewBox="0 0 24 24" fill="none" xmlns="http://www.w3.org/2000/svg">
    <path
        d="M12 24C18.6274 24 24 18.6274 24 12C24 5.37258 18.6274 0 12 0C5.37258 0 0 5.37258 0 12C0 18.6274 5.37258 24 12 24Z"
        fill="#F44336" />
    <path
        d="M23.5926 15.1105C23.0453 17.1429 21.974 18.9959 20.4857 20.4842C18.9974 21.9724 17.1444 23.0438 15.112 23.5911L7.9231 16.4021C9.06219 17.4785 10.5773 18.0665 12.1443 18.0404C13.7113 18.0142 15.2059 17.3759 16.3084 16.2621C17.4109 15.1482 18.0338 13.6472 18.044 12.08C18.0541 10.5128 17.4506 9.00381 16.3626 7.87579L23.5926 15.1105Z"
        />
    <path
        d="M12 18C15.3137 18 18 15.3137 18 12C18 8.68629 15.3137 6 12 6C8.68629 6 6 8.68629 6 12C6 15.3137 8.68629 18 12 18Z"
        fill="white" />
    <path
        d="M10.7605 8.89738V15.1026C10.7605 15.1351 10.754 15.1673 10.7416 15.1973C10.7291 15.2273 10.7108 15.2545 10.6878 15.2774C10.6647 15.3003 10.6374 15.3184 10.6073 15.3307C10.5772 15.343 10.545 15.3492 10.5126 15.349H9.52415C9.45882 15.349 9.39617 15.323 9.34998 15.2768C9.30378 15.2306 9.27783 15.168 9.27783 15.1026V8.89738C9.27783 8.83206 9.30378 8.7694 9.34998 8.72321C9.39617 8.67702 9.45882 8.65107 9.52415 8.65107H10.5126C10.545 8.65086 10.5772 8.65708 10.6073 8.66936C10.6374 8.68165 10.6647 8.69976 10.6878 8.72265C10.7108 8.74554 10.7291 8.77277 10.7416 8.80276C10.754 8.83274 10.7605 8.8649 10.7605 8.89738Z"
        fill="#F44336" />
    <path
        d="M14.7221 8.89896V15.1026C14.7221 15.168 14.6962 15.2306 14.65 15.2768C14.6038 15.323 14.5411 15.349 14.4758 15.349H13.4874C13.4549 15.3492 13.4227 15.3429 13.3927 15.3307C13.3626 15.3184 13.3352 15.3003 13.3122 15.2774C13.2892 15.2545 13.2709 15.2273 13.2584 15.1973C13.2459 15.1673 13.2395 15.1351 13.2395 15.1026V8.89896C13.2395 8.83321 13.2656 8.77016 13.3121 8.72367C13.3586 8.67718 13.4217 8.65106 13.4874 8.65106H14.4758C14.5083 8.65106 14.5405 8.65748 14.5704 8.66996C14.6004 8.68244 14.6277 8.70072 14.6506 8.72376C14.6734 8.7468 14.6916 8.77414 14.7038 8.80421C14.7161 8.83428 14.7223 8.86648 14.7221 8.89896Z"
        fill="#F44336" />
    <path opacity="0.25"
        d="M10.7605 8.89738V15.1026C10.7605 15.1351 10.754 15.1673 10.7416 15.1973C10.7291 15.2273 10.7108 15.2545 10.6878 15.2774C10.6647 15.3003 10.6374 15.3184 10.6073 15.3307C10.5772 15.343 10.545 15.3492 10.5126 15.349H9.52415C9.45882 15.349 9.39617 15.323 9.34998 15.2768C9.30378 15.2306 9.27783 15.168 9.27783 15.1026V8.89738C9.27783 8.83206 9.30378 8.7694 9.34998 8.72321C9.39617 8.67702 9.45882 8.65107 9.52415 8.65107H10.5126C10.545 8.65086 10.5772 8.65708 10.6073 8.66936C10.6374 8.68165 10.6647 8.69976 10.6878 8.72265C10.7108 8.74554 10.7291 8.77277 10.7416 8.80276C10.754 8.83274 10.7605 8.8649 10.7605 8.89738Z"
        fill="white" />
    <defs>
        <linearGradient id="paint0_linear_48_213" x1="12.1215" y1="12.12" x2="20.4852" y2="20.4837"
            gradientUnits="userSpaceOnUse">
            <stop stop-color="#B71C1C" />
            <stop offset="1" stop-color="#B71C1C" stop-opacity="0" />
        </linearGradient>
    </defs>
</svg>
