<svg width="23" height="23" viewBox="0 0 23 23" fill="none" xmlns="http://www.w3.org/2000/svg">
<g filter="url(#filter0_d_39_515)">
<path d="M12.5022 10.5682C12.3489 10.5824 12.1949 10.5478 12.0625 10.4693C11.9657 10.3699 11.9193 10.2319 11.9363 10.0943C11.9399 9.97967 11.9536 9.86558 11.9772 9.75338C12.0001 9.62465 12.0297 9.4972 12.0659 9.37155L12.4681 7.98745C12.5096 7.85084 12.537 7.71033 12.55 7.56812C12.55 7.41472 12.5704 7.30902 12.5704 7.24767C12.579 6.97425 12.4622 6.71186 12.2534 6.53517C11.9965 6.33795 11.6765 6.241 11.3534 6.26245C11.1218 6.26593 10.892 6.30384 10.6715 6.37495C10.4306 6.44995 10.1772 6.53971 9.91131 6.64427L9.79541 7.09427C9.87381 7.067 9.96929 7.03633 10.0784 7.00222C10.1824 6.9714 10.2903 6.95532 10.3988 6.9545C10.551 6.93801 10.7043 6.97539 10.8318 7.06017C10.9184 7.1635 10.959 7.29774 10.9443 7.43177C10.9439 7.54641 10.9313 7.6607 10.9068 7.77267C10.8829 7.892 10.8522 8.01812 10.8147 8.15107L10.409 9.54197C10.3763 9.67126 10.3502 9.8021 10.3306 9.93402C10.3147 10.047 10.3067 10.1609 10.3068 10.2749C10.3051 10.5502 10.431 10.8108 10.6477 10.9806C10.9085 11.1809 11.233 11.2802 11.5613 11.2601C11.7924 11.2649 12.0228 11.2315 12.2431 11.1613C12.4363 11.0953 12.6942 11.001 13.017 10.8783L13.1261 10.4488C13.0387 10.485 12.9486 10.5147 12.8568 10.5374C12.7406 10.5639 12.6213 10.5742 12.5022 10.5682Z" fill="#103164"/>
<path d="M12.9283 4.00568C12.7428 3.83529 12.4984 3.74362 12.2465 3.75001C11.9948 3.74432 11.7506 3.83591 11.5647 4.00568C11.2239 4.29953 11.1859 4.81401 11.4797 5.15482C11.5059 5.1852 11.5343 5.21359 11.5647 5.23978C11.9529 5.58704 12.5401 5.58704 12.9283 5.23978C13.2691 4.94303 13.3048 4.42624 13.0081 4.08546C12.9834 4.05707 12.9567 4.03041 12.9283 4.00568Z" fill="#103164"/>
<path d="M11.5 0C7.35786 0 4 3.35786 4 7.5C4 11.6421 7.35786 15 11.5 15C15.6421 15 19 11.6421 19 7.5C19 3.35786 15.6421 0 11.5 0ZM11.5 14.3182C7.73441 14.3182 4.68183 11.2656 4.68183 7.5C4.68183 3.73441 7.73441 0.681826 11.5 0.681826C15.2656 0.681826 18.3182 3.73441 18.3182 7.5C18.3182 11.2656 15.2656 14.3182 11.5 14.3182Z" fill="#103164"/>
</g>
<defs>
<filter id="filter0_d_39_515" x="0" y="0" width="23" height="23" filterUnits="userSpaceOnUse" color-interpolation-filters="sRGB">
<feFlood flood-opacity="0" result="BackgroundImageFix"/>
<feColorMatrix in="SourceAlpha" type="matrix" values="0 0 0 0 0 0 0 0 0 0 0 0 0 0 0 0 0 0 127 0" result="hardAlpha"/>
<feOffset dy="4"/>
<feGaussianBlur stdDeviation="2"/>
<feComposite in2="hardAlpha" operator="out"/>
<feColorMatrix type="matrix" values="0 0 0 0 0 0 0 0 0 0 0 0 0 0 0 0 0 0 0.25 0"/>
<feBlend mode="normal" in2="BackgroundImageFix" result="effect1_dropShadow_39_515"/>
<feBlend mode="normal" in="SourceGraphic" in2="effect1_dropShadow_39_515" result="shape"/>
</filter>
</defs>
</svg>
