<svg width="14" height="28" viewBox="0 0 14 28" fill="none" xmlns="http://www.w3.org/2000/svg">
<g filter="url(#filter0_d_31_74)">
<path d="M7 20C5.3457 20 4 18.6543 4 17C4 15.3457 5.3457 14 7 14C8.6543 14 10 15.3457 10 17C10 18.6543 8.6543 20 7 20ZM7 16C6.4482 16 6 16.4482 6 17C6 17.5518 6.4482 18 7 18C7.5518 18 8 17.5518 8 17C8 16.4482 7.5518 16 7 16Z" fill="#35CFD6"/>
<path d="M7 13C5.3457 13 4 11.6543 4 10C4 8.3457 5.3457 7 7 7C8.6543 7 10 8.3457 10 10C10 11.6543 8.6543 13 7 13ZM7 9C6.4482 9 6 9.4482 6 10C6 10.5518 6.4482 11 7 11C7.5518 11 8 10.5518 8 10C8 9.4482 7.5518 9 7 9Z" fill="#35CFD6"/>
<path d="M7 6C5.3457 6 4 4.6543 4 3C4 1.3457 5.3457 0 7 0C8.6543 0 10 1.3457 10 3C10 4.6543 8.6543 6 7 6ZM7 2C6.4482 2 6 2.4482 6 3C6 3.5518 6.4482 4 7 4C7.5518 4 8 3.5518 8 3C8 2.4482 7.5518 2 7 2Z" fill="#35CFD6"/>
</g>
<defs>
<filter id="filter0_d_31_74" x="0" y="0" width="14" height="28" filterUnits="userSpaceOnUse" color-interpolation-filters="sRGB">
<feFlood flood-opacity="0" result="BackgroundImageFix"/>
<feColorMatrix in="SourceAlpha" type="matrix" values="0 0 0 0 0 0 0 0 0 0 0 0 0 0 0 0 0 0 127 0" result="hardAlpha"/>
<feOffset dy="4"/>
<feGaussianBlur stdDeviation="2"/>
<feComposite in2="hardAlpha" operator="out"/>
<feColorMatrix type="matrix" values="0 0 0 0 0 0 0 0 0 0 0 0 0 0 0 0 0 0 0.25 0"/>
<feBlend mode="normal" in2="BackgroundImageFix" result="effect1_dropShadow_31_74"/>
<feBlend mode="normal" in="SourceGraphic" in2="effect1_dropShadow_31_74" result="shape"/>
</filter>
</defs>
</svg>
