<svg width="25" height="25" viewBox="0 0 25 25" fill="none" xmlns="http://www.w3.org/2000/svg">
<g filter="url(#filter0_d_36_473)">
<path d="M5 1H9.5C10.2956 1 11.0587 1.35119 11.6213 1.97631C12.1839 2.60143 12.5 3.44928 12.5 4.33333V16C12.5 15.337 12.2629 14.7011 11.841 14.2322C11.419 13.7634 10.8467 13.5 10.25 13.5H5V1Z" stroke="#103164" stroke-linecap="round" stroke-linejoin="round"/>
<path d="M20 1H15.5C14.7044 1 13.9413 1.35119 13.3787 1.97631C12.8161 2.60143 12.5 3.44928 12.5 4.33333V16C12.5 15.337 12.7371 14.7011 13.159 14.2322C13.581 13.7634 14.1533 13.5 14.75 13.5H20V1Z" stroke="#103164" stroke-linecap="round" stroke-linejoin="round"/>
</g>
<defs>
<filter id="filter0_d_36_473" x="0.5" y="0.5" width="24" height="24" filterUnits="userSpaceOnUse" color-interpolation-filters="sRGB">
<feFlood flood-opacity="0" result="BackgroundImageFix"/>
<feColorMatrix in="SourceAlpha" type="matrix" values="0 0 0 0 0 0 0 0 0 0 0 0 0 0 0 0 0 0 127 0" result="hardAlpha"/>
<feOffset dy="4"/>
<feGaussianBlur stdDeviation="2"/>
<feComposite in2="hardAlpha" operator="out"/>
<feColorMatrix type="matrix" values="0 0 0 0 0 0 0 0 0 0 0 0 0 0 0 0 0 0 0.25 0"/>
<feBlend mode="normal" in2="BackgroundImageFix" result="effect1_dropShadow_36_473"/>
<feBlend mode="normal" in="SourceGraphic" in2="effect1_dropShadow_36_473" result="shape"/>
</filter>
</defs>
</svg>
