<svg width="23" height="23" viewBox="0 0 23 23" fill="none" xmlns="http://www.w3.org/2000/svg">
<g filter="url(#filter0_d_39_508)">
<path d="M7.74058 0.00028422C7.54602 0.00608718 7.36136 0.0874693 7.22572 0.227102L4.2302 3.22314C4.16024 3.29275 4.10473 3.37543 4.06685 3.46657C4.02897 3.5577 4.00948 3.65542 4.00948 3.75411C4.00948 3.85281 4.02897 3.95052 4.06685 4.04166C4.10473 4.13279 4.16024 4.21556 4.2302 4.28517L7.22572 7.2813C7.29423 7.35554 7.37705 7.41507 7.46919 7.45647C7.56133 7.49787 7.66089 7.52021 7.76188 7.52213C7.86287 7.52405 7.96321 7.5055 8.05685 7.46763C8.1505 7.42976 8.23551 7.37338 8.30679 7.3018C8.37807 7.23021 8.43413 7.14492 8.4716 7.0511C8.50908 6.95729 8.52719 6.85686 8.52485 6.75586C8.52251 6.65486 8.49977 6.55537 8.458 6.46338C8.41622 6.3714 8.35628 6.28886 8.28177 6.22065L6.56753 4.50611H18.2381C18.4339 4.5018 18.6202 4.42102 18.7571 4.28102C18.894 4.14102 18.9707 3.9529 18.9707 3.75705C18.9707 3.56121 18.894 3.37317 18.7571 3.23318C18.6202 3.09318 18.4339 3.01239 18.2381 3.00809H6.56168L8.28177 1.28766C8.39031 1.18272 8.4646 1.04743 8.49491 0.899511C8.52522 0.751593 8.51013 0.597955 8.45162 0.458764C8.39311 0.319574 8.2939 0.201302 8.16702 0.119489C8.04013 0.0376756 7.89149 -0.00387391 7.74058 0.00028422ZM15.2411 7.49194C15.0918 7.49196 14.9458 7.53663 14.8221 7.62022C14.6983 7.70382 14.6024 7.82243 14.5465 7.96097C14.4907 8.09951 14.4776 8.25159 14.5088 8.39765C14.5401 8.54371 14.6143 8.67712 14.7219 8.7807L16.4361 10.4938H4.76553C4.6658 10.4916 4.56664 10.5094 4.47386 10.546C4.38108 10.5827 4.29656 10.6375 4.22525 10.7073C4.15394 10.777 4.09728 10.8604 4.0586 10.9523C4.01992 11.0443 4 11.1431 4 11.2428C4 11.3426 4.01992 11.4413 4.0586 11.5333C4.09728 11.6253 4.15394 11.7086 4.22525 11.7784C4.29656 11.8482 4.38108 11.903 4.47386 11.9396C4.56664 11.9763 4.6658 11.994 4.76553 11.9918H16.4419L14.7219 13.7122C14.6502 13.7814 14.5931 13.8642 14.5539 13.9558C14.5147 14.0474 14.4941 14.1459 14.4934 14.2455C14.4927 14.3451 14.5118 14.4439 14.5497 14.536C14.5877 14.6281 14.6436 14.7118 14.7142 14.782C14.7848 14.8523 14.8687 14.9078 14.9611 14.9452C15.0534 14.9826 15.1522 15.0012 15.2518 14.9999C15.3514 14.9987 15.4498 14.9775 15.5411 14.9377C15.6324 14.898 15.7149 14.8405 15.7838 14.7684L18.7793 11.7767C18.8492 11.7071 18.9047 11.6244 18.9426 11.5333C18.9805 11.4422 19 11.3445 19 11.2458C19 11.1471 18.9805 11.0494 18.9426 10.9582C18.9047 10.8671 18.8492 10.7843 18.7793 10.7147L15.7838 7.71867C15.7133 7.6462 15.6289 7.58878 15.5356 7.54981C15.4424 7.51084 15.3422 7.49116 15.2411 7.49194Z" fill="#103164"/>
</g>
<defs>
<filter id="filter0_d_39_508" x="0" y="0" width="23" height="23" filterUnits="userSpaceOnUse" color-interpolation-filters="sRGB">
<feFlood flood-opacity="0" result="BackgroundImageFix"/>
<feColorMatrix in="SourceAlpha" type="matrix" values="0 0 0 0 0 0 0 0 0 0 0 0 0 0 0 0 0 0 127 0" result="hardAlpha"/>
<feOffset dy="4"/>
<feGaussianBlur stdDeviation="2"/>
<feComposite in2="hardAlpha" operator="out"/>
<feColorMatrix type="matrix" values="0 0 0 0 0 0 0 0 0 0 0 0 0 0 0 0 0 0 0.25 0"/>
<feBlend mode="normal" in2="BackgroundImageFix" result="effect1_dropShadow_39_508"/>
<feBlend mode="normal" in="SourceGraphic" in2="effect1_dropShadow_39_508" result="shape"/>
</filter>
</defs>
</svg>
