<svg width="23" height="23" viewBox="0 0 23 23" fill="none" xmlns="http://www.w3.org/2000/svg">
<g filter="url(#filter0_d_48_384)">
<path d="M10.9514 11.6693C11.0234 11.7413 11.109 11.7985 11.2031 11.8375C11.2972 11.8765 11.3981 11.8965 11.5 11.8965C11.6019 11.8965 11.7028 11.8765 11.7969 11.8375C11.8911 11.7985 11.9766 11.7413 12.0487 11.6693L14.9746 8.74335C15.1201 8.59785 15.2018 8.40051 15.2018 8.19474C15.2018 7.98897 15.1201 7.79162 14.9746 7.64612C14.8291 7.50062 14.6318 7.41888 14.426 7.41888C14.2202 7.41888 14.0229 7.50062 13.8774 7.64612L12.2759 9.2476V0.775862C12.2759 0.570091 12.1941 0.372747 12.0486 0.227245C11.9031 0.0817424 11.7058 0 11.5 0C11.2943 0 11.0969 0.0817424 10.9514 0.227245C10.8059 0.372747 10.7242 0.570091 10.7242 0.775862V9.2476L9.12269 7.64612C8.97719 7.50062 8.77985 7.41888 8.57408 7.41888C8.3683 7.41888 8.17096 7.50062 8.02546 7.64612C7.87996 7.79162 7.79822 7.98897 7.79822 8.19474C7.79822 8.40051 7.87996 8.59785 8.02546 8.74335L10.9514 11.6693Z" fill="#103164"/>
<path d="M18.2241 6.72412C18.0184 6.72412 17.821 6.80586 17.6755 6.95137C17.53 7.09687 17.4483 7.29421 17.4483 7.49998V13.4483H5.55172V7.49998C5.55172 7.29421 5.46998 7.09687 5.32448 6.95137C5.17898 6.80586 4.98163 6.72412 4.77586 6.72412C4.57009 6.72412 4.37275 6.80586 4.22724 6.95137C4.08174 7.09687 4 7.29421 4 7.49998V13.7069C4 14.0498 4.13624 14.3787 4.37874 14.6212C4.62125 14.8637 4.95015 15 5.2931 15H17.7069C18.0498 15 18.3788 14.8637 18.6213 14.6212C18.8638 14.3787 19 14.0498 19 13.7069V7.49998C19 7.29421 18.9183 7.09687 18.7728 6.95137C18.6273 6.80586 18.4299 6.72412 18.2241 6.72412Z" fill="#103164"/>
</g>
<defs>
<filter id="filter0_d_48_384" x="0" y="0" width="23" height="23" filterUnits="userSpaceOnUse" color-interpolation-filters="sRGB">
<feFlood flood-opacity="0" result="BackgroundImageFix"/>
<feColorMatrix in="SourceAlpha" type="matrix" values="0 0 0 0 0 0 0 0 0 0 0 0 0 0 0 0 0 0 127 0" result="hardAlpha"/>
<feOffset dy="4"/>
<feGaussianBlur stdDeviation="2"/>
<feComposite in2="hardAlpha" operator="out"/>
<feColorMatrix type="matrix" values="0 0 0 0 0 0 0 0 0 0 0 0 0 0 0 0 0 0 0.25 0"/>
<feBlend mode="normal" in2="BackgroundImageFix" result="effect1_dropShadow_48_384"/>
<feBlend mode="normal" in="SourceGraphic" in2="effect1_dropShadow_48_384" result="shape"/>
</filter>
</defs>
</svg>
