<svg width="25" height="26" viewBox="0 0 25 26" fill="none" xmlns="http://www.w3.org/2000/svg">
<g filter="url(#filter0_d_35_368)">
<path d="M20.705 10.9725L19.1005 9.67873C19.1502 9.22718 19.1502 8.77128 19.1005 8.31973L20.7065 7.02525C21.0075 6.77532 21.0879 6.33706 20.8963 5.99099L19.227 3.01576C19.0347 2.6675 18.6253 2.51541 18.2618 2.65727L16.3706 3.44178C16.0152 3.17593 15.6345 2.94801 15.2344 2.76154L14.9442 0.690037C14.8919 0.29235 14.561 -0.00324266 14.1717 2.68584e-05H10.8258C10.4398 -0.00236376 10.1116 0.289924 10.0577 0.684025L9.76676 2.76151C9.36787 2.94977 8.98781 3.17786 8.63205 3.44252L6.73574 2.6565C6.37603 2.51028 5.96692 2.66054 5.77779 3.00823L4.10699 5.98874C3.91029 6.33538 3.99127 6.77845 4.29684 7.0275L5.90142 8.32124C5.8512 8.77275 5.8512 9.22873 5.90142 9.68024L4.29537 10.974C3.99389 11.2236 3.91309 11.6621 4.10481 12.0082L5.77342 14.9842C5.96545 15.3327 6.37518 15.4849 6.73864 15.3427L8.62983 14.5582C8.98552 14.8242 9.36644 15.0524 9.76672 15.2392L10.0577 17.3092C10.1089 17.7059 10.4377 18.0016 10.8258 18H14.1717C14.5584 18.0032 14.8877 17.7108 14.942 17.316L15.2329 15.2385C15.6318 15.0502 16.0118 14.8221 16.3676 14.5575L18.2661 15.3442C18.6258 15.4901 19.0347 15.34 19.224 14.9925L20.8999 12C21.0876 11.6544 21.0051 11.2197 20.705 10.9725ZM12.4988 12.75C10.4902 12.75 8.86186 11.071 8.86186 8.99997C8.86186 6.92888 10.4901 5.24997 12.4988 5.24997C14.5074 5.24997 16.1357 6.92888 16.1357 8.99997C16.1332 11.07 14.5063 12.7475 12.4988 12.75Z" fill="#103164"/>
</g>
<defs>
<filter id="filter0_d_35_368" x="0" y="0" width="25" height="26" filterUnits="userSpaceOnUse" color-interpolation-filters="sRGB">
<feFlood flood-opacity="0" result="BackgroundImageFix"/>
<feColorMatrix in="SourceAlpha" type="matrix" values="0 0 0 0 0 0 0 0 0 0 0 0 0 0 0 0 0 0 127 0" result="hardAlpha"/>
<feOffset dy="4"/>
<feGaussianBlur stdDeviation="2"/>
<feComposite in2="hardAlpha" operator="out"/>
<feColorMatrix type="matrix" values="0 0 0 0 0 0 0 0 0 0 0 0 0 0 0 0 0 0 0.25 0"/>
<feBlend mode="normal" in2="BackgroundImageFix" result="effect1_dropShadow_35_368"/>
<feBlend mode="normal" in="SourceGraphic" in2="effect1_dropShadow_35_368" result="shape"/>
</filter>
</defs>
</svg>
