<svg width="24" height="24" viewBox="0 0 24 24" fill="none" xmlns="http://www.w3.org/2000/svg">
<path d="M18.375 24C21.4816 24 24 21.4816 24 18.375C24 15.2684 21.4816 12.75 18.375 12.75C15.2684 12.75 12.75 15.2684 12.75 18.375C12.75 21.4816 15.2684 24 18.375 24Z" fill="#F79CAF"/>
<path d="M11.25 3.09375V8.15625C11.25 9.86203 9.86203 11.25 8.15625 11.25H3.09375C1.38797 11.25 0 9.86203 0 8.15625V3.09375C0 1.38797 1.38797 0 3.09375 0H8.15625C9.86203 0 11.25 1.38797 11.25 3.09375Z" fill="#ACEBE2"/>
<path d="M24 3.09375V8.15625C24 9.86203 22.612 11.25 20.9062 11.25H15.8438C14.138 11.25 12.75 9.86203 12.75 8.15625V3.09375C12.75 1.38797 14.138 0 15.8438 0H20.9062C22.612 0 24 1.38797 24 3.09375Z" fill="#ACEBE2"/>
<path d="M11.25 15.8438V20.9062C11.25 22.612 9.86203 24 8.15625 24H3.09375C1.38797 24 0 22.612 0 20.9062V15.8438C0 14.138 1.38797 12.75 3.09375 12.75H8.15625C9.86203 12.75 11.25 14.138 11.25 15.8438Z" fill="#ACEBE2"/>
<path d="M24 18.375C24 21.4767 21.4767 24 18.375 24C18.1209 24 17.8702 23.9831 17.625 23.9498C20.3737 23.5823 22.5 21.2222 22.5 18.375C22.5 15.5278 20.3737 13.1677 17.625 12.8002C17.8702 12.7669 18.1209 12.75 18.375 12.75C21.4767 12.75 24 15.2733 24 18.375Z" fill="#E3889B"/>
<path d="M11.25 3.09375V8.15625C11.25 9.86203 9.86203 11.25 8.15625 11.25H6.65625C8.36203 11.25 9.75 9.86203 9.75 8.15625V3.09375C9.75 1.38797 8.36203 0 6.65625 0H8.15625C9.86203 0 11.25 1.38797 11.25 3.09375Z" fill="#98D7CE"/>
<path d="M24 3.09375V8.15625C24 9.86203 22.612 11.25 20.9062 11.25H19.4062C21.112 11.25 22.5 9.86203 22.5 8.15625V3.09375C22.5 1.38797 21.112 0 19.4062 0H20.9062C22.612 0 24 1.38797 24 3.09375Z" fill="#98D7CE"/>
<path d="M11.25 15.8438V20.9062C11.25 22.612 9.86203 24 8.15625 24H6.65625C8.36203 24 9.75 22.612 9.75 20.9062V15.8438C9.75 14.138 8.36203 12.75 6.65625 12.75H8.15625C9.86203 12.75 11.25 14.138 11.25 15.8438Z" fill="#98D7CE"/>
</svg>
