<svg width="24" height="24" viewBox="0 0 24 24" fill="none" xmlns="http://www.w3.org/2000/svg">
<g filter="url(#filter0_d_45_71)">
<path d="M12 16C16.4183 16 20 12.4183 20 8C20 3.58172 16.4183 0 12 0C7.58172 0 4 3.58172 4 8C4 12.4183 7.58172 16 12 16Z" fill="#EAB14D"/>
<path d="M11.9999 0C11.8571 0 11.7152 0.00390625 11.5742 0.0112813C15.7946 0.232594 19.1486 3.72453 19.1486 8C19.1486 12.2755 15.7946 15.7674 11.5742 15.9887C11.7152 15.9961 11.8571 16 11.9999 16C16.4182 16 19.9999 12.4183 19.9999 8C19.9999 3.58172 16.4182 0 11.9999 0Z" fill="#E49542"/>
<path d="M12.0001 14.234C15.443 14.234 18.2341 11.4429 18.2341 8.00001C18.2341 4.55708 15.443 1.76604 12.0001 1.76604C8.55716 1.76604 5.76611 4.55708 5.76611 8.00001C5.76611 11.4429 8.55716 14.234 12.0001 14.234Z" fill="#F4FBFF"/>
<path d="M12 1.76604C11.8273 1.76604 11.6564 1.77338 11.4873 1.78713C14.6904 2.04788 17.2086 4.72972 17.2086 8.00001C17.2086 11.2703 14.6904 13.9521 11.4873 14.2129C11.6564 14.2267 11.8273 14.234 12 14.234C15.4429 14.234 18.2339 11.4429 18.2339 8.00004C18.2339 4.55713 15.4429 1.76604 12 1.76604Z" fill="#DAF1F4"/>
<path d="M12 3.68472C11.8666 3.68472 11.7585 3.57663 11.7585 3.44329V3.08891C11.7585 2.95557 11.8666 2.84747 12 2.84747C12.1333 2.84747 12.2415 2.95557 12.2415 3.08891V3.44329C12.2415 3.57663 12.1333 3.68472 12 3.68472Z" fill="#2B4D66"/>
<path d="M15.209 5.02481C15.1472 5.02481 15.0854 5.00122 15.0382 4.95409C14.944 4.85978 14.944 4.70693 15.0383 4.61262L15.2889 4.36206C15.3831 4.26775 15.536 4.26778 15.6303 4.36206C15.7246 4.45637 15.7246 4.60922 15.6303 4.70353L15.3797 4.95412C15.3325 5.00121 15.2708 5.02481 15.209 5.02481Z" fill="#2B4D66"/>
<path d="M16.8849 8.24147H16.5305C16.3971 8.24147 16.2891 8.13337 16.2891 8.00003C16.2891 7.86668 16.3972 7.75859 16.5305 7.75859H16.8849C17.0183 7.75859 17.1263 7.86668 17.1263 8.00003C17.1263 8.13337 17.0182 8.24147 16.8849 8.24147Z" fill="#2B4D66"/>
<path d="M15.441 11.701C15.3792 11.701 15.3174 11.6774 15.2702 11.6303L15.0197 11.3797C14.9254 11.2854 14.9254 11.1326 15.0197 11.0382C15.114 10.944 15.2668 10.944 15.3612 11.0382L15.6117 11.2888C15.706 11.3831 15.706 11.536 15.6117 11.6303C15.5646 11.6774 15.5028 11.701 15.441 11.701Z" fill="#2B4D66"/>
<path d="M11.9736 13.1263C11.8403 13.1263 11.7322 13.0182 11.7322 12.8849V12.5305C11.7322 12.3972 11.8403 12.2891 11.9736 12.2891C12.107 12.2891 12.2151 12.3972 12.2151 12.5305V12.8849C12.2151 13.0182 12.107 13.1263 11.9736 13.1263Z" fill="#2B4D66"/>
<path d="M8.51415 11.6824C8.45237 11.6824 8.39055 11.6588 8.34343 11.6117C8.24912 11.5174 8.24915 11.3645 8.34343 11.2702L8.59402 11.0196C8.68833 10.9254 8.84118 10.9253 8.93549 11.0197C9.02977 11.1139 9.02977 11.2668 8.93546 11.3611L8.68487 11.6117C8.63774 11.6588 8.57593 11.6824 8.51415 11.6824Z" fill="#2B4D66"/>
<path d="M7.44322 8.21519H7.08885C6.95551 8.21519 6.84741 8.1071 6.84741 7.97375C6.84741 7.84041 6.95551 7.73232 7.08885 7.73232H7.44322C7.57657 7.73232 7.68466 7.84041 7.68466 7.97375C7.68469 8.1071 7.57657 8.21519 7.44322 8.21519Z" fill="#2B4D66"/>
<path d="M8.7833 5.00623C8.72152 5.00623 8.65974 4.98267 8.61258 4.93551L8.36199 4.68495C8.26771 4.59063 8.26767 4.43779 8.36195 4.34348C8.45627 4.2492 8.60911 4.24917 8.70342 4.34345L8.95402 4.59404C9.0483 4.68832 9.04833 4.8412 8.95405 4.93551C8.90686 4.98263 8.84508 5.00623 8.7833 5.00623Z" fill="#2B4D66"/>
<path d="M12.0001 8.24147H9.94945C9.8161 8.24147 9.70801 8.13334 9.70801 8C9.70801 7.86666 9.8161 7.75856 9.94945 7.75856H11.7586V4.68678C11.7586 4.55344 11.8667 4.44534 12 4.44534C12.1334 4.44534 12.2415 4.55344 12.2415 4.68678V8C12.2415 8.13334 12.1334 8.24147 12.0001 8.24147Z" fill="#2B4D66"/>
<path d="M14.4771 9.51535C14.4399 9.51535 14.4022 9.50672 14.3669 9.48857L11.8896 8.21469C11.771 8.15372 11.7243 8.00816 11.7853 7.88957C11.8463 7.77097 11.9918 7.72425 12.1105 7.78525L14.5877 9.0591C14.7063 9.1201 14.753 9.26566 14.692 9.38422C14.6492 9.4675 14.5647 9.51535 14.4771 9.51535Z" fill="#DA4A54"/>
<path d="M11.9999 8.64444C12.3558 8.64444 12.6443 8.35591 12.6443 8C12.6443 7.64408 12.3558 7.35556 11.9999 7.35556C11.644 7.35556 11.3555 7.64408 11.3555 8C11.3555 8.35591 11.644 8.64444 11.9999 8.64444Z" fill="#365E7D"/>
</g>
<defs>
<filter id="filter0_d_45_71" x="0" y="0" width="24" height="24" filterUnits="userSpaceOnUse" color-interpolation-filters="sRGB">
<feFlood flood-opacity="0" result="BackgroundImageFix"/>
<feColorMatrix in="SourceAlpha" type="matrix" values="0 0 0 0 0 0 0 0 0 0 0 0 0 0 0 0 0 0 127 0" result="hardAlpha"/>
<feOffset dy="4"/>
<feGaussianBlur stdDeviation="2"/>
<feComposite in2="hardAlpha" operator="out"/>
<feColorMatrix type="matrix" values="0 0 0 0 0 0 0 0 0 0 0 0 0 0 0 0 0 0 0.25 0"/>
<feBlend mode="normal" in2="BackgroundImageFix" result="effect1_dropShadow_45_71"/>
<feBlend mode="normal" in="SourceGraphic" in2="effect1_dropShadow_45_71" result="shape"/>
</filter>
</defs>
</svg>
