<svg width="24" height="24" viewBox="0 0 24 24" fill="none" xmlns="http://www.w3.org/2000/svg">
<path d="M24 12C24 18.6275 18.6275 24 12 24C5.37268 24 0 18.6275 0 12C0 5.37268 5.37268 0 12 0C18.6275 0 24 5.37268 24 12Z" fill="#93DCFC"/>
<path d="M13.3844 21.9167C13.2351 21.9377 13.0839 21.9551 12.9321 21.9694C7.42648 22.4839 2.54579 18.438 2.03071 12.9322C1.516 7.42657 5.56209 2.54589 11.0677 2.03081C11.8604 1.95665 12.6404 1.97698 13.3961 2.08336C17.8886 2.71178 21.5282 6.35486 21.9693 11.0678C22.4697 16.4216 18.6578 21.1844 13.3844 21.9167Z" fill="#07A9F0"/>
<path d="M13.3844 21.9167C8.89155 21.2884 5.25177 17.6452 4.81122 12.9322C4.31079 7.57838 8.12269 2.81561 13.3961 2.08337C17.8886 2.71179 21.5282 6.35487 21.9693 11.0678C22.4698 16.4217 18.6579 21.1844 13.3844 21.9167Z" fill="#40C1FA"/>
<path d="M16.2441 8.19489V15.8051C16.2441 16.127 15.9806 16.3905 15.6587 16.3905H8.34125C8.01917 16.3905 7.75586 16.127 7.75586 15.8051V8.19489C7.75586 7.87299 8.01917 7.6095 8.34125 7.6095H15.6587C15.9806 7.6095 16.2441 7.87299 16.2441 8.19489Z" fill="#EBE1DC"/>
<path d="M16.2443 8.19489V15.211C12.2079 14.9905 8.9931 11.6834 8.91895 7.6095H15.6589C15.9808 7.6095 16.2443 7.87299 16.2443 8.19489Z" fill="#FFF5F5"/>
</svg>
